<?xml version="1.0" standalone="no"?><!DOCTYPE svg PUBLIC "-//W3C//DTD SVG 1.1//EN" "http://www.w3.org/Graphics/SVG/1.1/DTD/svg11.dtd"><svg t="1481800040744" class="icon" style="" viewBox="0 0 1236 1024" version="1.1" xmlns="http://www.w3.org/2000/svg" p-id="6475" xmlns:xlink="http://www.w3.org/1999/xlink" width="241.40625" height="200"><defs><style type="text/css"></style></defs><path d="M711.804878 536.97561c-17.482927-3.746341-8.741463-12.487805-8.741463-12.487805s17.482927-28.721951-3.746342-49.95122c-26.22439-26.22439-88.663415 3.746341-88.663414 3.746342-23.726829 7.492683-17.482927-3.746341-13.736586-22.478049 0-21.229268-7.492683-58.692683-71.180488-37.463415-63.687805 22.478049-118.634146 98.653659-118.634146 98.653659-38.712195 51.2-33.717073 91.160976-33.717073 91.160976 9.990244 87.414634 102.4 111.141463 174.829268 117.385365 76.17561 6.243902 178.57561-26.22439 209.795122-92.409756 28.721951-67.434146-27.473171-92.409756-46.204878-96.156097zM551.960976 699.317073c-74.926829 3.746341-136.117073-33.717073-136.117074-84.917073 0-49.95122 61.190244-91.160976 136.117074-93.658537 74.926829-3.746341 136.117073 27.473171 136.117073 77.424391 0 51.2-61.190244 98.653659-136.117073 101.151219z" fill="#E52122" p-id="6476"></path><path d="M551.960976 699.317073c-74.926829 3.746341-136.117073-33.717073-136.117074-84.917073 0-49.95122 61.190244-91.160976 136.117074-93.658537 74.926829-3.746341 136.117073 27.473171 136.117073 77.424391 0 51.2-61.190244 98.653659-136.117073 101.151219z" fill="#FFFFFF" p-id="6477"></path><path d="M536.97561 554.458537c-76.17561 8.741463-68.682927 77.42439-68.682927 77.42439s1.24878 23.726829 22.478049 36.214634c43.707317 23.726829 89.912195 9.990244 112.390244-19.980488 22.478049-29.970732 9.990244-102.4-66.185366-93.658536z m-18.731708 99.902439c-13.736585 1.24878-24.97561-6.243902-24.975609-18.731708 0-11.239024 9.990244-23.726829 23.726829-24.975609 16.234146-1.24878 26.22439 7.492683 26.22439 19.980487 0 11.239024-11.239024 21.229268-24.97561 23.72683z m43.707318-38.712196c-4.995122 3.746341-11.239024 2.497561-13.736586-1.24878-2.497561-3.746341-1.24878-11.239024 3.746342-14.985366 4.995122-3.746341 11.239024-2.497561 13.736585 1.248781 2.497561 4.995122 1.24878 11.239024-3.746341 14.985365z" fill="#040000" p-id="6478"></path><path d="M821.697561 497.014634v-3.746341c1.24878-6.243902 1.24878-13.736585 1.24878-19.980488 0-74.926829-61.190244-134.868293-134.868292-134.868293-9.990244 0-18.731707 8.741463-18.731708 18.731708s8.741463 18.731707 18.731708 18.731707c53.697561 0 97.404878 43.707317 97.404878 97.404878 0 6.243902 0 12.487805-1.248781 17.482927v2.497561c0 9.990244 8.741463 18.731707 18.731708 18.731707 8.741463-1.24878 16.234146-7.492683 18.731707-14.985366z" fill="#F49D25" p-id="6479"></path><path d="M763.004878 479.531707v-7.492683c0-41.209756-33.717073-74.926829-74.926829-74.926829-8.741463 0-16.234146 7.492683-16.234147 16.234146s7.492683 16.234146 16.234147 16.234147c23.726829 0 43.707317 19.980488 43.707317 43.707317v7.492683c0 8.741463 7.492683 16.234146 16.234146 16.234146 7.492683 0 13.736585-6.243902 14.985366-13.736585v-1.248781-2.497561z" fill="#F49D25" p-id="6480"></path></svg>